<svg width="113" height="24" viewBox="0 0 113 24" fill="none" xmlns="http://www.w3.org/2000/svg">
<path d="M5.642 19.26C4.758 19.26 3.94333 19.0867 3.198 18.74C2.47 18.376 1.88933 17.8907 1.456 17.284C1.04 16.6773 0.832 16.01 0.832 15.282C0.832 14.1033 1.30867 13.15 2.262 12.422C3.21533 11.694 4.524 11.2 6.188 10.94L9.75 10.42V9.874C9.75 9.11133 9.55933 8.53933 9.178 8.158C8.79667 7.77667 8.18133 7.586 7.332 7.586C6.76 7.586 6.292 7.69867 5.928 7.924C5.58133 8.132 5.304 8.34 5.096 8.548C4.888 8.77333 4.74933 8.92067 4.68 8.99C4.61067 9.198 4.48067 9.302 4.29 9.302H2.288C2.132 9.302 1.99333 9.25 1.872 9.146C1.768 9.042 1.716 8.90333 1.716 8.73C1.73333 8.29667 1.94133 7.80267 2.34 7.248C2.756 6.69333 3.38867 6.21667 4.238 5.818C5.08733 5.41933 6.12733 5.22 7.358 5.22C9.40333 5.22 10.894 5.67933 11.83 6.598C12.766 7.51667 13.234 8.72133 13.234 10.212V18.376C13.234 18.5493 13.1733 18.6967 13.052 18.818C12.948 18.9393 12.8007 19 12.61 19H10.504C10.3307 19 10.1833 18.9393 10.062 18.818C9.94067 18.6967 9.88 18.5493 9.88 18.376V17.362C9.49867 17.9167 8.95267 18.376 8.242 18.74C7.54867 19.0867 6.682 19.26 5.642 19.26ZM6.526 16.79C7.47933 16.79 8.25933 16.478 8.866 15.854C9.47267 15.23 9.776 14.32 9.776 13.124V12.578L7.176 12.994C6.17067 13.15 5.408 13.4013 4.888 13.748C4.38533 14.0947 4.134 14.5193 4.134 15.022C4.134 15.5767 4.368 16.01 4.836 16.322C5.304 16.634 5.86733 16.79 6.526 16.79ZM21.5875 19.26C19.9928 19.26 18.7362 18.74 17.8175 17.7C16.8988 16.6427 16.4395 15.2127 16.4395 13.41V6.104C16.4395 5.93067 16.5002 5.78333 16.6215 5.662C16.7428 5.54067 16.8902 5.48 17.0635 5.48H19.3515C19.5422 5.48 19.6895 5.54067 19.7935 5.662C19.9148 5.766 19.9755 5.91333 19.9755 6.104V13.254C19.9755 15.4033 20.9202 16.478 22.8095 16.478C23.7108 16.478 24.4215 16.192 24.9415 15.62C25.4788 15.048 25.7475 14.2593 25.7475 13.254V6.104C25.7475 5.93067 25.8082 5.78333 25.9295 5.662C26.0508 5.54067 26.1982 5.48 26.3715 5.48H28.6595C28.8502 5.48 28.9975 5.54067 29.1015 5.662C29.2228 5.766 29.2835 5.91333 29.2835 6.104V18.376C29.2835 18.5493 29.2228 18.6967 29.1015 18.818C28.9975 18.9393 28.8502 19 28.6595 19H26.5535C26.3802 19 26.2328 18.9393 26.1115 18.818C25.9902 18.6967 25.9295 18.5493 25.9295 18.376V17.31C24.9588 18.61 23.5115 19.26 21.5875 19.26ZM38.828 19C37.2506 19 36.0633 18.5927 35.266 17.778C34.486 16.946 34.096 15.7327 34.096 14.138V8.236H32.042C31.8686 8.236 31.7213 8.17533 31.6 8.054C31.4786 7.91533 31.418 7.75933 31.418 7.586V6.104C31.418 5.93067 31.4786 5.78333 31.6 5.662C31.7213 5.54067 31.8686 5.48 32.042 5.48H34.096V1.164C34.096 0.973332 34.1566 0.825999 34.278 0.722C34.3993 0.600666 34.5466 0.539999 34.72 0.539999H36.826C37.0166 0.539999 37.164 0.600666 37.268 0.722C37.3893 0.825999 37.45 0.973332 37.45 1.164V5.48H40.7C40.8906 5.48 41.038 5.54067 41.142 5.662C41.2633 5.766 41.324 5.91333 41.324 6.104V7.586C41.324 7.77667 41.2633 7.93267 41.142 8.054C41.0206 8.17533 40.8733 8.236 40.7 8.236H37.45V13.878C37.45 14.6233 37.58 15.1867 37.84 15.568C38.1 15.9493 38.5333 16.14 39.14 16.14H40.934C41.1073 16.14 41.2546 16.2007 41.376 16.322C41.4973 16.4433 41.558 16.5907 41.558 16.764V18.376C41.558 18.5493 41.4973 18.6967 41.376 18.818C41.272 18.9393 41.1246 19 40.934 19H38.828ZM49.8444 19.26C47.8164 19.26 46.2478 18.74 45.1384 17.7C44.0291 16.6427 43.4311 15.204 43.3444 13.384L43.3184 12.24L43.3444 11.096C43.4311 9.29333 44.0378 7.86333 45.1644 6.806C46.2911 5.74867 47.8511 5.22 49.8444 5.22C51.8378 5.22 53.3978 5.74867 54.5244 6.806C55.6511 7.86333 56.2578 9.29333 56.3444 11.096C56.3618 11.304 56.3704 11.6853 56.3704 12.24C56.3704 12.7947 56.3618 13.176 56.3444 13.384C56.2578 15.204 55.6598 16.6427 54.5504 17.7C53.4411 18.74 51.8724 19.26 49.8444 19.26ZM49.8444 16.686C50.7631 16.686 51.4738 16.4 51.9764 15.828C52.4791 15.2387 52.7564 14.3807 52.8084 13.254C52.8258 13.0807 52.8344 12.7427 52.8344 12.24C52.8344 11.7373 52.8258 11.3993 52.8084 11.226C52.7564 10.0993 52.4791 9.25 51.9764 8.678C51.4738 8.08867 50.7631 7.794 49.8444 7.794C48.9258 7.794 48.2151 8.08867 47.7124 8.678C47.2098 9.25 46.9324 10.0993 46.8804 11.226L46.8544 12.24L46.8804 13.254C46.9324 14.3807 47.2098 15.2387 47.7124 15.828C48.2151 16.4 48.9258 16.686 49.8444 16.686ZM65.1012 19.26C63.1945 19.26 61.6692 18.7313 60.5252 17.674C59.3985 16.6167 58.8005 15.152 58.7312 13.28L58.7052 12.24L58.7312 11.2C58.8005 9.328 59.3985 7.86333 60.5252 6.806C61.6692 5.74867 63.1945 5.22 65.1012 5.22C66.4532 5.22 67.5972 5.46267 68.5332 5.948C69.4865 6.43333 70.1885 7.03133 70.6392 7.742C71.1072 8.43533 71.3585 9.094 71.3932 9.718C71.4105 9.89133 71.3498 10.0387 71.2112 10.16C71.0898 10.2813 70.9425 10.342 70.7692 10.342H68.4812C68.3078 10.342 68.1692 10.3073 68.0652 10.238C67.9785 10.1513 67.8918 10.0127 67.8052 9.822C67.5452 9.146 67.1985 8.66067 66.7652 8.366C66.3492 8.07133 65.8118 7.924 65.1532 7.924C64.2692 7.924 63.5758 8.21 63.0732 8.782C62.5705 9.33667 62.3018 10.186 62.2672 11.33L62.2412 12.292L62.2672 13.15C62.3365 15.4207 63.2985 16.556 65.1532 16.556C65.8292 16.556 66.3752 16.4087 66.7912 16.114C67.2072 15.8193 67.5452 15.334 67.8052 14.658C67.8918 14.4673 67.9785 14.3373 68.0652 14.268C68.1692 14.1813 68.3078 14.138 68.4812 14.138H70.7692C70.9425 14.138 71.0898 14.1987 71.2112 14.32C71.3498 14.4413 71.4105 14.5887 71.3932 14.762C71.3585 15.3687 71.1158 16.0187 70.6652 16.712C70.2145 17.4053 69.5212 18.0033 68.5852 18.506C67.6492 19.0087 66.4878 19.26 65.1012 19.26ZM74.7287 19C74.5553 19 74.408 18.9393 74.2867 18.818C74.1653 18.6967 74.1047 18.5493 74.1047 18.376V6.13C74.1047 5.95667 74.1653 5.80933 74.2867 5.688C74.408 5.54933 74.5553 5.48 74.7287 5.48H76.8347C77.0253 5.48 77.1813 5.54067 77.3027 5.662C77.424 5.78333 77.4847 5.93933 77.4847 6.13V7.196C77.9007 6.64133 78.4207 6.21667 79.0447 5.922C79.686 5.62733 80.414 5.48 81.2287 5.48H82.2947C82.4853 5.48 82.6327 5.54067 82.7367 5.662C82.858 5.766 82.9187 5.91333 82.9187 6.104V7.976C82.9187 8.14933 82.858 8.29667 82.7367 8.418C82.6327 8.53933 82.4853 8.6 82.2947 8.6H80.2667C79.452 8.6 78.8107 8.834 78.3427 9.302C77.8747 9.77 77.6407 10.4113 77.6407 11.226V18.376C77.6407 18.5493 77.58 18.6967 77.4587 18.818C77.3373 18.9393 77.1813 19 76.9907 19H74.7287ZM87.3905 23.94C87.2518 23.94 87.1305 23.888 87.0265 23.784C86.9225 23.68 86.8705 23.5587 86.8705 23.42C86.8705 23.264 86.9051 23.1253 86.9745 23.004L89.0025 18.194L84.0105 6.416C83.9411 6.26 83.9065 6.13867 83.9065 6.052C83.9238 5.896 83.9845 5.766 84.0885 5.662C84.1925 5.54067 84.3225 5.48 84.4785 5.48H86.5845C86.9138 5.48 87.1478 5.64467 87.2865 5.974L90.7445 14.476L94.3065 5.974C94.4451 5.64467 94.6791 5.48 95.0085 5.48H97.0885C97.2271 5.48 97.3485 5.532 97.4525 5.636C97.5738 5.74 97.6345 5.86133 97.6345 6C97.6345 6.12133 97.5998 6.26 97.5305 6.416L90.1725 23.446C90.0165 23.7753 89.7738 23.94 89.4445 23.94H87.3905ZM100.526 23.94C100.353 23.94 100.205 23.8793 100.084 23.758C99.9628 23.654 99.9022 23.5067 99.9022 23.316V6.104C99.9022 5.91333 99.9628 5.766 100.084 5.662C100.205 5.54067 100.353 5.48 100.526 5.48H102.58C102.771 5.48 102.918 5.54067 103.022 5.662C103.143 5.766 103.204 5.91333 103.204 6.104V7.144C104.175 5.86133 105.561 5.22 107.364 5.22C109.115 5.22 110.458 5.77467 111.394 6.884C112.33 7.976 112.833 9.458 112.902 11.33C112.919 11.538 112.928 11.8413 112.928 12.24C112.928 12.656 112.919 12.968 112.902 13.176C112.833 14.996 112.33 16.4693 111.394 17.596C110.458 18.7053 109.115 19.26 107.364 19.26C105.613 19.26 104.279 18.6447 103.36 17.414V23.316C103.36 23.5067 103.299 23.654 103.178 23.758C103.074 23.8793 102.927 23.94 102.736 23.94H100.526ZM106.402 16.478C108.274 16.478 109.271 15.3253 109.392 13.02C109.409 12.8467 109.418 12.5867 109.418 12.24C109.418 11.8933 109.409 11.6333 109.392 11.46C109.271 9.15467 108.274 8.002 106.402 8.002C105.397 8.002 104.651 8.32267 104.166 8.964C103.681 9.60533 103.412 10.394 103.36 11.33L103.334 12.318L103.36 13.332C103.395 14.1987 103.663 14.944 104.166 15.568C104.686 16.1747 105.431 16.478 106.402 16.478Z" fill="white"/>
</svg>
