<?xml version="1.0" standalone="no"?>
<!DOCTYPE svg PUBLIC "-//W3C//DTD SVG 20010904//EN"
 "http://www.w3.org/TR/2001/REC-SVG-20010904/DTD/svg10.dtd">
<svg version="1.0" xmlns="http://www.w3.org/2000/svg"
 width="640.000000pt" height="640.000000pt" viewBox="0 0 640.000000 640.000000"
 preserveAspectRatio="xMidYMid meet">
<metadata>
Created by potrace 1.11, written by Peter Selinger 2001-2013
</metadata>
<g transform="translate(0.000000,640.000000) scale(0.100000,-0.100000)"
fill="#000000" stroke="none">
<path d="M290 5875 c-114 -31 -215 -117 -260 -222 l-25 -58 -2 -2120 c-3
-2246 -5 -2140 40 -2245 21 -50 110 -135 171 -165 64 -31 120 -41 219 -40 l77
1 1 -76 c0 -41 0 -103 -1 -138 -3 -126 49 -222 146 -272 49 -25 50 -25 353
-26 169 -1 320 3 339 8 82 23 163 104 178 179 4 19 8 95 9 169 1 74 3 140 4
145 1 12 3305 14 3317 2 5 -4 9 -76 10 -160 2 -176 10 -205 79 -272 72 -70 92
-73 443 -71 303 1 308 1 354 25 54 28 87 59 119 116 20 36 23 56 26 195 2 85
5 160 7 165 2 6 34 10 77 10 186 -3 322 75 393 225 l31 65 3 2110 c2 1435 -1
2126 -8 2159 -30 141 -131 247 -278 291 -63 19 -5752 20 -5822 0z m943 -782
c39 -36 50 -83 47 -195 -1 -10 -1 -38 -1 -63 0 -25 0 -52 0 -60 0 -8 0 -35 0
-60 0 -25 0 -53 0 -62 0 -10 0 -38 0 -63 0 -25 0 -51 0 -57 0 -7 0 -33 0 -58
0 -25 0 -53 0 -62 0 -10 0 -38 0 -63 0 -25 0 -51 0 -57 0 -7 0 -33 0 -58 0
-25 0 -53 0 -62 0 -10 0 -38 0 -63 0 -25 0 -51 0 -57 0 -7 0 -33 0 -58 0 -25
0 -53 0 -62 0 -10 0 -38 0 -63 0 -25 0 -51 0 -57 0 -7 0 -33 0 -58 0 -25 0
-53 0 -62 0 -10 0 -38 0 -63 0 -25 0 -51 0 -57 0 -7 0 -33 0 -58 0 -25 0 -53
0 -62 0 -10 0 -38 0 -63 0 -25 0 -51 0 -57 0 -7 0 -33 0 -58 0 -25 0 -53 0
-62 0 -10 0 -38 0 -63 0 -25 0 -51 0 -57 0 -7 0 -33 0 -58 0 -25 0 -53 0 -62
0 -10 0 -38 0 -63 0 -25 0 -51 0 -57 0 -12 0 -80 0 -120 0 -10 0 -76 0 -148 0
-71 0 -134 0 -140 0 -5 0 -39 0 -75 0 -36 0 -72 0 -80 0 -8 0 -44 0 -80 0 -36
0 -72 0 -80 -1 -17 0 -138 1 -191 0 -20 -4 -48 -10 -63 -36 -95 -163 -112
-220 -29 -24 35 -24 40 -25 246 l-1 211 -86 2 c-70 1 -92 6 -116 22 -92 66
-54 215 59 228 24 2 49 7 56 9 7 2 14 1 17 -3 3 -5 20 -6 38 -4 l33 4 -1 371
c-1 205 -2 378 -3 385 0 8 -12 13 -28 12 -16 -1 -54 -2 -87 -1 -54 1 -61 4
-97 40 -33 33 -39 45 -39 81 0 91 54 133 172 134 43 0 79 2 79 6 1 3 2 173 3
378 1 240 -2 376 -9 380 -5 3 -39 5 -74 4 -77 -3 -123 16 -152 61 -29 46 -22
115 17 155 31 33 58 40 164 41 l55 1 -1 198 c-1 234 3 252 66 295 31 22 114
16 143 -10z m2877 -238 c110 -11 133 -15 220 -38 311 -84 603 -287 788 -549
66 -94 163 -284 182 -358 7 -25 17 -51 22 -57 6 -7 8 -13 5 -13 -3 0 2 -25 10
-56 8 -31 16 -71 18 -88 2 -17 7 -46 10 -65 9 -48 11 -255 2 -326 -26 -229
-96 -423 -225 -625 -92 -145 -256 -308 -408 -405 -146 -94 -363 -181 -497
-201 -21 -3 -44 -7 -50 -8 -7 -1 -16 -4 -22 -8 -5 -3 -95 -5 -200 -4 -141 1
-211 7 -270 20 -328 73 -596 232 -799 472 -93 109 -186 259 -226 364 -7 19
-19 49 -25 65 -43 105 -81 303 -80 422 0 40 -4 73 -8 73 -5 0 -6 4 -3 9 3 4 8
39 10 77 5 61 10 103 21 169 13 79 59 220 100 310 16 33 29 62 29 65 3 14 86
144 132 205 98 131 282 296 407 365 137 75 308 143 392 157 17 2 46 9 65 14
19 5 71 12 115 15 44 4 81 7 83 9 4 3 135 -3 202 -10z m-2830 -3885 c3 -30 2
-66 -1 -80 -3 -14 -2 -41 1 -62 4 -20 4 -42 0 -48 -6 -10 -245 -15 -485 -11
l-30 1 3 117 c1 65 4 123 6 128 2 7 92 10 252 10 l249 0 5 -55z m4350 -20 c3
-41 3 -99 0 -129 l-5 -54 -235 1 c-129 1 -243 1 -253 2 -16 0 -18 7 -15 50 1
28 1 50 -2 50 -5 0 -2 127 4 145 2 6 95 10 252 10 l249 0 5 -75z"/>
<path d="M3858 4605 c-2 -1 -28 -6 -58 -9 -159 -19 -337 -89 -493 -194 -107
-72 -267 -238 -318 -332 -8 -14 -17 -27 -20 -30 -12 -9 -80 -161 -99 -218 -48
-147 -55 -199 -53 -387 1 -164 23 -280 74 -400 7 -16 13 -32 14 -35 21 -60
117 -217 172 -282 91 -107 239 -225 358 -286 62 -32 133 -62 153 -65 9 -1 22
-6 28 -9 10 -7 30 -12 89 -24 17 -3 37 -8 45 -11 24 -8 127 -16 215 -16 120
-1 199 11 335 47 149 41 336 153 465 280 164 162 273 355 321 571 30 135 65
120 -286 122 -167 1 -323 4 -346 8 -119 18 -136 190 -24 238 15 6 146 11 340
12 173 1 321 3 328 4 8 0 11 8 8 19 -3 9 -8 37 -11 61 -8 55 -54 197 -90 276
-51 111 -134 227 -235 325 -100 98 -125 120 -135 120 -3 0 -15 9 -26 19 -56
52 -309 157 -424 177 -22 4 -49 9 -60 11 -22 5 -262 12 -267 8z"/>
</g>
</svg>
